HIERARCHY
ROOT Hips
{
	OFFSET 0.000000 83.214638 0.000000
	CHANNELS 6 Xposition Yposition Zposition Xrotation Yrotation Zrotation
	JOINT Pelvis
	{
		OFFSET 0.000000 0.000000 0.000000
		CHANNELS 3 Xrotation Yrotation Zrotation
		JOINT LeftUpLeg
		{
			OFFSET 8.479700 -4.795502 -0.379100
			CHANNELS 3 Xrotation Yrotation Zrotation
			JOINT LeftLeg
			{
				OFFSET 0.024144 -32.555107 0.112900
				CHANNELS 3 Xrotation Yrotation Zrotation
				JOINT LeftFoot
				{
					OFFSET -0.024144 -32.638630 -3.012600
					CHANNELS 3 Xrotation Yrotation Zrotation
					JOINT LeftToeBase
					{
						OFFSET 0.970200 -13.225400 11.864200
						CHANNELS 3 Xrotation Yrotation Zrotation
						End Site
						{
							OFFSET 0.000000 12.319262 0.000000
						}
					}
					JOINT LFootTongue
					{
						OFFSET 1.142400 -1.059800 6.665200
						CHANNELS 3 Xrotation Yrotation Zrotation
						End Site
						{
							OFFSET 0.000000 12.319262 0.000000
						}
					}
				}
				JOINT LeftPantLeg
				{
					OFFSET 0.918482 -16.533964 -2.284700
					CHANNELS 3 Xrotation Yrotation Zrotation
					End Site
					{
						OFFSET 0.350399 24.744368 0.000000
					}
				}
			}
		}
		JOINT RightUpLeg
		{
			OFFSET -8.479700 -4.795502 -0.379100
			CHANNELS 3 Xrotation Yrotation Zrotation
			JOINT RightLeg
			{
				OFFSET -0.023144 -32.555092 0.112900
				CHANNELS 3 Xrotation Yrotation Zrotation
				JOINT RightFoot
				{
					OFFSET 0.023144 -32.638641 -3.012700
					CHANNELS 3 Xrotation Yrotation Zrotation
					JOINT RightToeBase
					{
						OFFSET -0.970200 -13.225400 11.864200
						CHANNELS 3 Xrotation Yrotation Zrotation
						End Site
						{
							OFFSET 0.000000 12.319244 0.000000
						}
					}
					JOINT RFootTongue
					{
						OFFSET -1.142200 -1.059800 6.665200
						CHANNELS 3 Xrotation Yrotation Zrotation
						End Site
						{
							OFFSET 0.000000 12.319243 0.000000
						}
					}
				}
				JOINT RightPantLeg
				{
					OFFSET -0.919482 -16.533978 -2.284800
					CHANNELS 3 Xrotation Yrotation Zrotation
					End Site
					{
						OFFSET -0.350400 24.744419 0.000000
					}
				}
			}
		}
	}
	JOINT Spine
	{
		OFFSET 0.000000 7.722000 1.166200
		CHANNELS 3 Xrotation Yrotation Zrotation
		JOINT Spine1
		{
			OFFSET 0.000000 12.024101 0.248800
			CHANNELS 3 Xrotation Yrotation Zrotation
			JOINT Spine2
			{
				OFFSET 0.000000 11.502998 -0.491200
				CHANNELS 3 Xrotation Yrotation Zrotation
				JOINT Neck
				{
					OFFSET 0.000000 18.430702 -3.123100
					CHANNELS 3 Xrotation Yrotation Zrotation
					JOINT Head
					{
						OFFSET 0.000000 9.051102 1.034000
						CHANNELS 3 Xrotation Yrotation Zrotation
						JOINT HairB
						{
							OFFSET 0.208400 24.786102 24.822300
							CHANNELS 3 Xrotation Yrotation Zrotation
							End Site
							{
								OFFSET 0.000000 32.263779 0.000000
							}
						}
						JOINT HairA
						{
							OFFSET -7.081100 24.428299 23.196600
							CHANNELS 3 Xrotation Yrotation Zrotation
							End Site
							{
								OFFSET 0.000000 32.263779 0.000000
							}
						}
						JOINT Hat
						{
							OFFSET 16.728800 15.048294 -15.439601
							CHANNELS 3 Xrotation Yrotation Zrotation
							End Site
							{
								OFFSET 0.000000 32.263779 0.000000
							}
						}
					}
				}
				JOINT LeftShoulder
				{
					OFFSET 6.197800 13.665199 -4.064700
					CHANNELS 3 Xrotation Yrotation Zrotation
					JOINT LeftArm
					{
						OFFSET 7.778100 -0.187103 -1.709300
						CHANNELS 3 Xrotation Yrotation Zrotation
						JOINT LeftForeArm
						{
							OFFSET 22.049376 0.000000 0.000000
							CHANNELS 3 Xrotation Yrotation Zrotation
							JOINT LeftHand
							{
								OFFSET 23.009392 0.000000 0.000000
								CHANNELS 3 Xrotation Yrotation Zrotation
								JOINT LeftHandThumb1
								{
									OFFSET 3.507191 -2.063065 3.133727
									CHANNELS 3 Xrotation Yrotation Zrotation
									JOINT LeftHandThumb2
									{
										OFFSET 3.101337 -1.790558 1.790558
										CHANNELS 3 Xrotation Yrotation Zrotation
										JOINT LeftHandThumb3
										{
											OFFSET 3.058640 -1.765907 1.765906
											CHANNELS 3 Xrotation Yrotation Zrotation
											End Site
											{
												OFFSET -0.415260 3.926476 -0.049563
											}
										}
									}
								}
								JOINT LeftHandIndex1
								{
									OFFSET 11.334419 -0.901459 3.706815
									CHANNELS 3 Xrotation Yrotation Zrotation
									JOINT LeftHandIndex2
									{
										OFFSET 3.283112 0.000000 0.000000
										CHANNELS 3 Xrotation Yrotation Zrotation
										JOINT LeftHandIndex3
										{
											OFFSET 3.323853 0.000000 0.000000
											CHANNELS 3 Xrotation Yrotation Zrotation
											End Site
											{
												OFFSET -1.135597 3.097809 0.402452
											}
										}
									}
								}
								JOINT LeftHandMiddle1
								{
									OFFSET 11.335861 0.000000 0.000000
									CHANNELS 3 Xrotation Yrotation Zrotation
									JOINT LeftHandMiddle2
									{
										OFFSET 3.410492 0.000000 0.000000
										CHANNELS 3 Xrotation Yrotation Zrotation
										JOINT LeftHandMiddle3
										{
											OFFSET 3.312172 0.000000 0.000000
											CHANNELS 3 Xrotation Yrotation Zrotation
											End Site
											{
												OFFSET -1.150200 3.080154 0.400270
											}
										}
									}
								}
								JOINT LeftHandRing1
								{
									OFFSET 11.514786 -0.013176 -3.003090
									CHANNELS 3 Xrotation Yrotation Zrotation
									JOINT LeftHandRing2
									{
										OFFSET 3.053307 0.000000 0.000000
										CHANNELS 3 Xrotation Yrotation Zrotation
										JOINT LeftHandRing3
										{
											OFFSET 3.295807 0.000000 0.000000
											CHANNELS 3 Xrotation Yrotation Zrotation
											End Site
											{
												OFFSET -1.281006 3.013344 0.375733
											}
										}
									}
								}
								JOINT LeftHandPinky1
								{
									OFFSET 10.518692 -0.960396 -5.730441
									CHANNELS 3 Xrotation Yrotation Zrotation
									JOINT LeftHandPinky2
									{
										OFFSET 2.861649 0.000000 0.000000
										CHANNELS 3 Xrotation Yrotation Zrotation
										JOINT LeftHandPinky3
										{
											OFFSET 2.863380 0.000000 0.000000
											CHANNELS 3 Xrotation Yrotation Zrotation
											End Site
											{
												OFFSET -0.843597 2.711159 0.369971
											}
										}
									}
								}
							}
							JOINT LSleeve
							{
								OFFSET 6.676277 -0.344902 -1.011730
								CHANNELS 3 Xrotation Yrotation Zrotation
								End Site
								{
									OFFSET 0.000000 14.885353 0.000000
								}
							}
						}
					}
				}
				JOINT RightShoulder
				{
					OFFSET -6.197800 13.665199 -4.064700
					CHANNELS 3 Xrotation Yrotation Zrotation
					JOINT RightArm
					{
						OFFSET -7.778100 -0.187103 -1.709300
						CHANNELS 3 Xrotation Yrotation Zrotation
						JOINT RightForeArm
						{
							OFFSET -22.049376 0.000000 0.000000
							CHANNELS 3 Xrotation Yrotation Zrotation
							JOINT RightHand
							{
								OFFSET -23.009392 0.000000 0.000000
								CHANNELS 3 Xrotation Yrotation Zrotation
								JOINT RightHandThumb1
								{
									OFFSET -3.507191 -2.063065 3.133727
									CHANNELS 3 Xrotation Yrotation Zrotation
									JOINT RightHandThumb2
									{
										OFFSET -3.101337 -1.790558 1.790558
										CHANNELS 3 Xrotation Yrotation Zrotation
										JOINT RightHandThumb3
										{
											OFFSET -3.058640 -1.765907 1.765906
											CHANNELS 3 Xrotation Yrotation Zrotation
											End Site
											{
												OFFSET 0.415260 3.926476 -0.049563
											}
										}
									}
								}
								JOINT RightHandIndex1
								{
									OFFSET -11.334419 -0.901459 3.706815
									CHANNELS 3 Xrotation Yrotation Zrotation
									JOINT RightHandIndex2
									{
										OFFSET -3.283112 0.000000 0.000000
										CHANNELS 3 Xrotation Yrotation Zrotation
										JOINT RightHandIndex3
										{
											OFFSET -3.323853 0.000000 0.000000
											CHANNELS 3 Xrotation Yrotation Zrotation
											End Site
											{
												OFFSET 1.135597 3.097809 0.402452
											}
										}
									}
								}
								JOINT RightHandMiddle1
								{
									OFFSET -11.335861 0.000000 0.000000
									CHANNELS 3 Xrotation Yrotation Zrotation
									JOINT RightHandMiddle2
									{
										OFFSET -3.410492 0.000000 0.000000
										CHANNELS 3 Xrotation Yrotation Zrotation
										JOINT RightHandMiddle3
										{
											OFFSET -3.312172 0.000000 0.000000
											CHANNELS 3 Xrotation Yrotation Zrotation
											End Site
											{
												OFFSET 1.150200 3.080154 0.400270
											}
										}
									}
								}
								JOINT RightHandRing1
								{
									OFFSET -11.514786 -0.013176 -3.003090
									CHANNELS 3 Xrotation Yrotation Zrotation
									JOINT RightHandRing2
									{
										OFFSET -3.053307 0.000000 0.000000
										CHANNELS 3 Xrotation Yrotation Zrotation
										JOINT RightHandRing3
										{
											OFFSET -3.295807 0.000000 0.000000
											CHANNELS 3 Xrotation Yrotation Zrotation
											End Site
											{
												OFFSET 1.281006 3.013344 0.375733
											}
										}
									}
								}
								JOINT RightHandPinky1
								{
									OFFSET -10.518692 -0.960396 -5.730441
									CHANNELS 3 Xrotation Yrotation Zrotation
									JOINT RightHandPinky2
									{
										OFFSET -2.861649 0.000000 0.000000
										CHANNELS 3 Xrotation Yrotation Zrotation
										JOINT RightHandPinky3
										{
											OFFSET -2.863380 0.000000 0.000000
											CHANNELS 3 Xrotation Yrotation Zrotation
											End Site
											{
												OFFSET 0.843597 2.711159 0.369971
											}
										}
									}
								}
							}
							JOINT RSleeve
							{
								OFFSET -6.676277 -0.344902 -1.011730
								CHANNELS 3 Xrotation Yrotation Zrotation
								End Site
								{
									OFFSET 0.000000 14.885353 0.000000
								}
							}
						}
					}
				}
				JOINT Backpack
				{
					OFFSET 0.000000 -2.471497 36.677502
					CHANNELS 3 Xrotation Yrotation Zrotation
					End Site
					{
						OFFSET 0.000000 20.427315 0.000000
					}
				}
				JOINT Hood
				{
					OFFSET 0.000000 18.754097 -10.431000
					CHANNELS 3 Xrotation Yrotation Zrotation
					JOINT Hood1
					{
						OFFSET 0.000000 -5.011002 -7.685901
						CHANNELS 3 Xrotation Yrotation Zrotation
						End Site
						{
							OFFSET 0.000000 9.175140 0.000000
						}
					}
				}
				JOINT LHoodieString
				{
					OFFSET 5.250500 16.397697 3.089900
					CHANNELS 3 Xrotation Yrotation Zrotation
					JOINT LHoodieString1
					{
						OFFSET 0.257700 -6.364304 3.694600
						CHANNELS 3 Xrotation Yrotation Zrotation
						JOINT LHoodieString2
						{
							OFFSET 0.000000 -9.643799 2.679100
							CHANNELS 3 Xrotation Yrotation Zrotation
							End Site
							{
								OFFSET 0.000000 10.009018 0.000000
							}
						}
					}
				}
				JOINT RHoodieString
				{
					OFFSET -5.250500 16.397697 3.089900
					CHANNELS 3 Xrotation Yrotation Zrotation
					JOINT RHoodieString1
					{
						OFFSET -0.257700 -6.364304 3.694600
						CHANNELS 3 Xrotation Yrotation Zrotation
						JOINT RHoodieString2
						{
							OFFSET 0.000000 -9.643799 2.679100
							CHANNELS 3 Xrotation Yrotation Zrotation
							End Site
							{
								OFFSET 0.000000 10.009018 0.000000
							}
						}
					}
				}
			}
			JOINT LBackpack_Strap
			{
				OFFSET 15.223200 -7.719803 -6.610900
				CHANNELS 3 Xrotation Yrotation Zrotation
				End Site
				{
					OFFSET 0.000000 16.040596 0.000000
				}
			}
			JOINT RBackpack_Strap
			{
				OFFSET -15.223000 -7.719803 -6.610900
				CHANNELS 3 Xrotation Yrotation Zrotation
				End Site
				{
					OFFSET 0.000000 16.040596 0.000000
				}
			}
		}
	}
	JOINT BoyFacialAnim_Joint
	{
		OFFSET 1.000000 -82.208099 -1.550900
		CHANNELS 3 Xrotation Yrotation Zrotation
		End Site
		{
			OFFSET 0.000000 30.012791 0.000000
		}
	}
}
MOTION
Frames: 4
Frame Time: 0.016667
-2.188473 78.897438 -1.771254 1.779794 -44.827126 4.711139 0.000000 0.000001 0.000000 -21.789654 7.762169 11.611182 11.917419 -8.344204 3.775130 7.487586 -2.891532 -18.373789 0.000000 -0.000002 0.000000 0.000000 -0.000002 0.000000 -0.000000 -0.000002 0.000001 -12.446676 -6.243100 -16.008982 25.414311 -11.558949 -8.188373 -10.278931 -5.648046 22.290780 -0.000000 -0.000001 -0.000000 -0.000000 -0.000001 -0.000000 0.000001 0.000001 -0.000003 6.689927 0.774470 -0.750191 -0.557036 1.560419 -1.610235 -0.534577 1.560469 -1.609752 -19.005368 -1.508386 20.421618 -4.556868 11.720413 -16.000780 -0.000000 0.000002 0.000000 -0.000000 0.000002 0.000000 -0.000000 0.000002 0.000000 -8.631162 -5.317961 -15.297513 0.075338 -2.626987 -31.066818 42.317485 -37.063339 15.465971 -23.800378 3.779287 5.091211 7.895960 12.754504 1.888097 -2.399858 10.098217 -6.912114 0.000003 -0.000001 -0.000003 10.366019 -5.431323 -20.260057 0.012394 0.242552 -14.888687 -0.000003 -0.000003 -0.000002 8.099329 -3.521110 -16.129447 0.036830 0.594739 -11.734536 0.000000 -0.000000 -0.000003 7.437962 -2.616156 -14.483983 -0.036253 0.187719 -10.043035 -0.000002 0.000003 -0.000004 6.501846 -1.624434 -10.619911 -0.001462 0.148106 -9.427954 0.000000 0.000002 -0.000002 0.000000 -0.000001 0.000002 -0.620554 15.164828 -23.726494 -69.097035 11.570649 13.062495 113.321567 148.813785 -130.632491 -14.646407 20.622271 10.268474 0.299581 -0.474266 0.374528 -3.620652 -7.484589 8.065543 -0.000001 0.000003 -0.000001 10.001350 7.473615 21.241258 -0.008296 -0.266170 15.389779 -0.000006 0.000000 0.000000 6.820063 4.437942 24.757452 0.121747 -0.593764 18.466441 0.000002 -0.000004 -0.000002 4.875286 1.715983 32.191935 -0.003220 -0.241519 22.203676 0.000000 0.000001 0.000001 3.061661 -1.343052 39.368039 0.068275 -0.198073 27.160230 0.000001 0.000003 -0.000001 -0.000003 0.000000 -0.000001 0.000000 0.000000 -0.000000 0.000000 0.000000 -0.000000 0.000000 0.000000 -0.000000 0.000000 0.000000 -0.000000 0.000000 0.000000 -0.000000 -0.000000 0.000000 -0.000000 0.000000 0.000000 -0.000000 0.000000 0.000000 -0.000000 -0.000000 0.000000 -0.000000 0.000001 -0.000001 0.000000 0.000001 -0.000001 0.000000 0.000000 0.000001 0.000000 
-1.726353 78.763489 -1.830282 1.866876 -45.780190 4.945084 -0.000000 -0.000003 -0.000000 -22.317990 7.845304 11.731068 13.015092 -7.582556 3.412340 6.775196 -2.775441 -18.019263 -0.000000 0.000002 0.000000 -0.000000 0.000002 0.000000 0.000001 -0.000004 0.000001 -13.544924 -5.836981 -16.277007 26.171075 -10.772917 -8.642741 -10.172159 -5.542363 22.537454 -0.000000 -0.000000 -0.000000 -0.000000 -0.000000 -0.000000 -0.000002 0.000001 -0.000000 6.826396 0.789164 -0.692585 -0.284725 1.586131 -1.496925 -0.262262 1.586182 -1.496444 -19.292211 0.711465 20.366999 -3.643173 13.440626 -15.407655 -0.000000 0.000001 -0.000000 -0.000000 0.000001 -0.000000 -0.000000 0.000001 -0.000000 -8.545908 -5.440088 -14.847629 0.040957 -2.007572 -31.692194 42.522528 -37.721195 16.179333 -23.412154 3.306881 4.559603 7.803313 12.376363 1.963682 -2.337369 10.219262 -6.846314 -0.000003 -0.000001 0.000005 10.515337 -5.092600 -20.325948 0.011422 0.243631 -15.207519 -0.000001 0.000000 -0.000002 8.128694 -3.265485 -16.334846 0.039428 0.596844 -12.096715 -0.000000 -0.000002 -0.000002 7.412077 -2.391993 -14.908264 -0.036565 0.190008 -10.461724 -0.000001 -0.000000 0.000001 6.330468 -1.420205 -11.092607 0.000942 0.151197 -10.093326 0.000001 0.000001 -0.000002 0.000000 -0.000001 0.000007 -1.211231 15.565841 -20.539016 -65.286356 12.486778 13.348860 113.302286 142.450794 -129.003791 -15.346282 19.991258 10.507298 0.841606 -1.185489 0.646257 -3.543954 -7.625404 7.985599 -0.000001 0.000001 -0.000001 10.272588 7.143731 23.988121 -0.006355 -0.268647 17.205527 -0.000004 -0.000001 -0.000000 6.758879 4.033163 27.064519 0.133524 -0.599022 20.307585 0.000000 0.000001 -0.000002 4.642730 1.320750 34.431783 -0.002030 -0.250336 23.879673 -0.000001 -0.000001 -0.000002 2.590326 -1.663340 41.407411 0.074437 -0.202431 28.788858 0.000001 0.000001 0.000000 0.000001 -0.000000 0.000001 0.000001 -0.000001 -0.000000 0.000001 -0.000001 -0.000000 0.000001 -0.000001 -0.000000 0.000001 -0.000001 -0.000000 0.000001 -0.000001 -0.000000 -0.000001 0.000001 -0.000000 0.000001 -0.000001 -0.000000 0.000001 -0.000001 -0.000000 -0.000001 0.000001 -0.000000 -0.000001 -0.000001 -0.000000 -0.000001 -0.000001 -0.000000 -0.000000 -0.000003 -0.000000 
-1.268706 78.621162 -1.891018 1.965908 -46.727223 5.191032 -0.000000 0.000003 -0.000000 -22.862720 7.922896 11.854064 14.123393 -6.832417 3.058816 6.084203 -2.670741 -17.685190 0.000000 -0.000001 0.000000 0.000000 -0.000001 0.000000 -0.000000 0.000002 -0.000002 -14.646881 -5.402177 -16.533566 26.953335 -9.984485 -9.052606 -10.091601 -5.426522 22.749309 -0.000000 0.000002 0.000000 -0.000000 0.000002 0.000000 0.000000 -0.000000 0.000000 6.984215 0.798968 -0.648358 0.030507 1.602056 -1.410629 0.052967 1.602122 -1.410150 -19.678864 2.847929 20.261700 -2.884405 15.081094 -14.720871 -0.000001 0.000001 0.000000 -0.000001 0.000001 0.000000 -0.000001 0.000001 0.000000 -8.451880 -5.621932 -14.376196 -0.075744 -1.533862 -32.297936 42.235380 -38.238589 16.524084 -22.716999 2.721485 4.212289 7.702759 11.981695 2.047352 -2.271927 10.346019 -6.777507 0.000000 -0.000000 0.000005 10.666653 -4.778037 -20.352540 0.010612 0.244529 -15.498642 -0.000000 0.000001 -0.000003 8.160062 -3.018648 -16.524661 0.041934 0.599022 -12.447965 -0.000001 0.000002 -0.000001 7.387553 -2.161935 -15.340881 -0.036747 0.192304 -10.886817 -0.000002 0.000000 -0.000000 6.154511 -1.190101 -11.592638 0.003688 0.154462 -10.790890 0.000001 0.000000 -0.000000 -0.000001 0.000000 0.000001 -1.838002 15.913864 -17.234357 -61.208610 13.459272 13.486391 111.295535 139.193504 -126.470132 -13.055773 19.376687 10.856558 1.302484 -1.793410 0.752535 -3.461105 -7.778555 7.899729 -0.000002 0.000003 0.000002 10.560500 6.834444 26.258659 -0.005032 -0.270956 18.813700 -0.000001 0.000002 0.000004 6.734492 3.630408 28.949255 0.144536 -0.603053 21.917401 -0.000002 -0.000001 -0.000004 4.449666 0.905853 36.260358 -0.000544 -0.257392 25.307377 -0.000004 -0.000004 -0.000000 2.154136 -2.026316 43.046707 0.080092 -0.205641 30.188193 -0.000000 0.000003 -0.000003 -0.000000 0.000002 -0.000003 0.000001 0.000002 -0.000000 0.000001 0.000002 -0.000000 0.000001 0.000002 -0.000000 0.000001 0.000002 -0.000000 0.000001 0.000002 -0.000000 0.000001 -0.000003 0.000000 0.000001 0.000002 -0.000000 0.000001 0.000002 -0.000000 0.000001 -0.000003 0.000000 -0.000000 0.000003 -0.000000 -0.000000 0.000003 -0.000000 -0.000000 0.000003 -0.000000 
-0.817076 78.468506 -1.952231 2.077871 -47.659694 5.444771 -0.000000 -0.000002 -0.000000 -23.657496 7.941273 12.007946 15.603632 -6.128058 2.723395 5.509231 -2.609225 -17.331422 -0.000000 0.000000 -0.000000 -0.000000 0.000000 -0.000000 -0.000001 0.000002 0.000001 -15.791385 -4.985707 -16.860710 27.827471 -9.152345 -9.285301 -10.069283 -5.283010 22.858939 -0.000000 0.000000 0.000000 -0.000000 0.000000 0.000000 -0.000000 -0.000002 -0.000001 7.159996 0.808402 -0.609561 0.381791 1.616016 -1.339482 0.404245 1.616075 -1.339004 -20.090172 4.892758 20.079757 -2.370503 16.634110 -14.025583 -0.000003 -0.000001 -0.000000 -0.000003 -0.000001 -0.000000 -0.000003 -0.000001 -0.000000 -8.350766 -5.895209 -13.889794 -0.307279 -1.191912 -32.855549 41.504901 -38.584623 16.501879 -21.860762 2.062525 4.067439 7.595158 11.572960 2.139295 -2.203543 10.479061 -6.705540 0.000001 -0.000001 -0.000001 10.817052 -4.496417 -20.333345 0.009945 0.245462 -15.754678 -0.000001 -0.000001 -0.000004 8.192560 -2.786665 -16.693602 0.044387 0.601084 -12.787688 -0.000001 -0.000000 0.000004 7.364242 -1.930031 -15.779277 -0.036702 0.194720 -11.318097 -0.000002 0.000003 -0.000002 5.974182 -0.935471 -12.117708 0.006726 0.157899 -11.523783 -0.000000 -0.000001 -0.000002 -0.000001 0.000001 0.000003 -2.473714 16.306122 -13.905141 -56.841275 14.356177 13.304797 109.584300 135.172326 -124.529334 -12.518402 18.763440 11.455882 1.709465 -2.341667 0.715105 -3.375396 -7.937556 7.810749 -0.000002 0.000001 0.000001 10.848331 6.547874 27.989750 -0.004357 -0.273188 20.162280 -0.000003 -0.000001 0.000002 6.739377 3.239568 30.352316 0.154414 -0.605495 23.251904 0.000000 -0.000000 0.000003 4.297151 0.478150 37.613657 0.001106 -0.262421 26.447638 0.000001 -0.000003 0.000002 1.767425 -2.429458 44.218371 0.085103 -0.207514 31.316370 -0.000003 -0.000004 -0.000002 0.000001 0.000001 -0.000002 -0.000000 -0.000001 0.000000 -0.000000 -0.000001 0.000000 -0.000000 -0.000001 0.000000 -0.000000 -0.000001 0.000000 -0.000000 -0.000001 -0.000000 -0.000000 0.000001 -0.000001 -0.000000 -0.000001 0.000000 -0.000000 -0.000001 -0.000000 -0.000000 0.000001 -0.000001 0.000000 -0.000000 0.000000 0.000000 -0.000000 0.000000 -0.000000 -0.000002 -0.000000 
